<?xml version="1.0" encoding="utf-8"?>
<svg xmlns="http://www.w3.org/2000/svg" height="512pt" version="1.1" viewBox="0 0 512 512" width="512pt">
<path d="M 0.00 0.00 L 512.00 0.00 L 512.00 512.00 L 0.00 512.00 L 0.00 0.00 Z" fill="transparent" opacity="1.00" stroke="transparent" stroke-width="0.25"/>
<path d="M 195.14 123.34 C 202.07 119.17 208.82 114.00 216.99 112.63 C 220.48 112.22 222.93 115.49 223.38 118.62 C 227.43 136.80 229.88 155.35 230.21 173.97 C 229.97 179.45 234.97 183.23 239.33 185.56 C 246.04 188.75 253.79 189.76 261.13 188.70 C 269.77 188.35 278.35 187.21 286.98 186.53 C 296.31 186.20 305.65 186.26 314.98 186.51 C 332.32 187.78 349.64 191.80 365.14 199.84 C 377.70 206.17 389.22 215.07 397.39 226.62 C 399.74 229.80 400.90 233.81 403.94 236.47 C 409.28 232.62 414.49 227.60 416.24 221.07 C 414.71 215.90 413.52 210.37 415.12 205.05 C 415.99 200.82 418.94 196.97 423.07 195.51 C 425.45 195.23 428.41 194.87 430.26 196.75 C 432.00 198.30 432.49 200.81 432.15 203.03 C 431.74 208.13 428.66 212.38 426.95 217.06 C 427.14 219.09 429.57 218.82 431.05 219.21 C 435.87 219.31 438.72 214.82 442.04 212.04 C 443.30 210.66 445.16 212.07 446.64 212.23 C 446.42 214.28 447.24 216.87 445.49 218.43 C 441.64 222.44 437.02 227.07 431.00 226.75 C 428.20 226.99 425.23 225.79 422.56 226.57 C 418.89 233.60 413.25 239.21 407.22 244.22 C 408.71 251.77 411.43 259.20 411.61 266.99 C 411.80 274.01 412.08 281.12 410.73 288.04 C 408.79 296.91 406.15 305.70 401.80 313.72 C 396.74 324.67 388.59 333.72 380.76 342.74 C 375.80 347.44 370.85 352.17 365.98 356.97 C 361.21 360.52 357.45 365.20 352.63 368.68 C 347.79 373.15 342.35 376.90 337.47 381.30 C 333.61 385.52 330.37 390.29 327.65 395.31 C 317.83 395.51 308.04 396.15 298.23 396.51 C 298.68 391.03 299.32 385.56 300.04 380.11 C 300.61 376.39 300.70 372.63 300.92 368.88 C 300.93 368.74 300.95 368.47 300.96 368.33 C 301.69 354.77 300.96 341.17 300.52 327.60 C 300.32 330.18 300.20 332.77 300.20 335.37 C 299.49 332.83 298.91 330.25 298.48 327.65 C 296.70 337.57 298.61 347.73 297.32 357.66 C 295.12 357.13 293.04 356.30 291.08 355.20 C 285.43 354.74 279.85 356.51 274.20 356.10 C 273.06 356.07 271.95 356.05 270.82 356.07 C 259.56 357.11 248.16 355.63 236.93 357.27 C 232.43 357.93 227.84 358.19 223.44 359.40 C 221.56 359.72 221.06 361.69 220.52 363.22 C 218.87 368.31 216.93 373.31 214.85 378.24 C 212.69 383.95 209.57 389.20 206.94 394.68 C 197.43 394.48 187.93 394.33 178.42 394.18 C 176.65 389.36 175.81 384.30 174.64 379.32 C 174.37 377.72 173.34 376.45 172.32 375.26 C 174.85 370.43 171.98 364.92 171.40 359.92 C 169.19 349.31 168.40 338.46 166.30 327.83 C 166.06 333.23 166.48 338.65 167.43 343.97 C 166.28 343.86 165.14 343.73 164.00 343.55 C 155.49 339.07 148.23 332.16 142.80 324.23 C 135.10 313.91 129.78 301.99 126.20 289.67 C 122.18 286.40 118.25 282.98 114.96 278.94 C 106.50 267.84 101.84 254.08 91.84 244.14 C 86.62 238.53 79.84 234.79 73.65 230.39 C 69.75 227.63 68.64 222.52 68.32 218.04 C 68.01 211.96 67.03 205.74 68.56 199.74 C 68.73 203.60 68.38 207.48 68.91 211.32 C 70.82 213.07 71.32 209.62 71.70 208.43 C 72.56 205.27 72.27 201.97 71.90 198.77 C 71.06 198.66 69.37 198.46 68.52 198.36 C 68.68 194.14 69.34 189.86 70.94 185.94 C 72.26 182.40 76.67 181.08 80.08 181.98 C 87.97 183.57 96.09 186.00 104.16 184.11 C 111.44 181.93 116.88 176.31 121.96 170.96 C 124.98 167.38 127.83 163.55 131.71 160.83 C 134.46 158.70 137.83 157.54 140.48 155.26 C 140.38 154.50 140.19 152.97 140.09 152.20 C 140.70 153.36 141.37 154.48 142.03 155.62 C 151.23 151.80 161.43 150.23 171.35 151.20 C 170.39 154.17 169.37 157.33 170.17 160.47 C 171.82 154.73 173.78 149.10 176.37 143.72 L 176.67 143.48 C 176.26 143.09 175.87 142.71 175.47 142.32 C 177.23 141.52 178.50 140.07 179.60 138.52 C 183.90 132.64 189.48 127.85 195.14 123.34 Z" fill="#fdc5b6" opacity="1.00" stroke="#fdc5b6" stroke-width="0.25"/>
<path d="M 136.78 129.05 C 137.28 124.44 136.98 119.41 139.83 115.46 C 141.23 115.26 142.52 115.53 143.70 116.28 C 155.04 123.97 165.89 132.49 175.47 142.32 C 175.87 142.71 176.26 143.09 176.67 143.48 L 176.37 143.72 C 173.51 145.24 172.41 148.35 171.35 151.20 C 161.43 150.23 151.23 151.80 142.03 155.62 C 141.37 154.48 140.70 153.36 140.09 152.20 C 137.45 144.78 137.29 136.83 136.78 129.05 Z" fill="#f7b6a4" opacity="1.00" stroke="#f7b6a4" stroke-width="0.25"/>
<path d="M 208.43 122.36 C 211.25 122.47 215.12 120.11 217.27 122.71 C 218.19 125.78 219.39 128.80 219.95 131.95 C 220.33 138.10 222.17 144.02 222.67 150.15 C 224.03 157.70 224.29 165.38 224.12 173.03 C 224.59 178.53 220.30 183.18 215.96 185.85 C 209.36 185.89 202.96 183.17 197.83 179.13 C 194.84 176.84 191.12 175.27 189.03 171.99 C 187.74 169.54 186.64 166.64 187.77 163.92 C 188.37 160.32 187.88 156.61 188.77 153.05 C 190.68 146.02 194.05 139.39 198.74 133.80 C 201.26 130.22 204.77 127.50 207.35 123.98 C 207.62 123.57 208.16 122.76 208.43 122.36 Z" fill="#f7b6a4" opacity="1.00" stroke="#f7b6a4" stroke-width="0.25"/>
<path d="M 188.68 151.05 C 191.58 140.14 199.17 131.39 207.35 123.98 C 204.77 127.50 201.26 130.22 198.74 133.80 C 194.05 139.39 190.68 146.02 188.77 153.05 C 187.88 156.61 188.37 160.32 187.77 163.92 C 187.84 159.62 187.33 155.22 188.68 151.05 Z" fill="#2d3a40" opacity="1.00" stroke="#2d3a40" stroke-width="0.25"/>
<path d="M 171.35 151.20 C 172.41 148.35 173.51 145.24 176.37 143.72 C 173.78 149.10 171.82 154.73 170.17 160.47 C 169.37 157.33 170.39 154.17 171.35 151.20 Z" fill="#c99e93" opacity="1.00" stroke="#c99e93" stroke-width="0.25"/>
<path d="M 124.47 182.68 C 129.78 180.37 136.72 184.94 135.61 190.94 C 135.30 197.43 126.63 200.11 122.10 196.03 C 117.92 192.38 119.16 184.57 124.47 182.68 Z" fill="#2d3a40" opacity="1.00" stroke="#2d3a40" stroke-width="0.25"/>
<path d="M 79.61 196.04 C 79.55 191.89 78.37 187.83 78.61 183.66 C 81.10 195.57 80.98 207.95 79.34 219.96 C 80.11 212.01 79.83 204.01 79.61 196.04 Z" fill="#2d3a40" opacity="1.00" stroke="#2d3a40" stroke-width="0.25"/>
<path d="M 125.42 187.95 C 126.31 185.57 128.64 185.08 130.57 186.66 C 130.61 188.08 130.94 190.46 128.87 190.49 C 127.07 191.02 126.26 189.11 125.42 187.95 Z" fill="#ffffff" opacity="1.00" stroke="#ffffff" stroke-width="0.25"/>
<path d="M 122.61 190.41 C 123.19 190.35 124.35 190.25 124.93 190.19 C 125.11 190.91 125.28 191.63 125.45 192.36 C 124.55 192.41 123.66 192.48 122.76 192.54 C 122.73 192.01 122.65 190.94 122.61 190.41 Z" fill="#ffffff" opacity="1.00" stroke="#ffffff" stroke-width="0.25"/>
<path d="M 68.52 198.36 C 69.37 198.46 71.06 198.66 71.90 198.77 C 72.27 201.97 72.56 205.27 71.70 208.43 C 71.32 209.62 70.82 213.07 68.91 211.32 C 68.38 207.48 68.73 203.60 68.56 199.74 L 68.52 198.36 Z" fill="#fe9481" opacity="1.00" stroke="#fe9481" stroke-width="0.25"/>
<path d="M 75.26 201.39 C 75.73 201.21 76.69 200.86 77.17 200.69 C 77.97 205.11 77.74 209.64 77.17 214.07 C 76.43 215.48 74.46 215.77 73.95 214.02 C 73.46 209.82 73.94 205.38 75.26 201.39 Z" fill="#fe9481" opacity="1.00" stroke="#fe9481" stroke-width="0.25"/>
<path d="M 421.41 212.05 C 421.02 208.38 420.63 203.45 424.96 202.02 C 426.12 204.10 424.85 206.28 424.05 208.24 C 423.39 209.65 422.79 211.20 421.41 212.05 Z" fill="#ffffff" opacity="1.00" stroke="#ffffff" stroke-width="0.25"/>
<path d="M 158.24 209.32 C 164.01 207.68 170.86 208.44 175.53 212.42 C 179.29 216.44 176.68 223.17 171.69 224.68 C 165.37 226.85 156.80 226.59 152.55 220.65 C 150.03 216.01 153.07 210.10 158.24 209.32 Z" fill="#fe9481" opacity="1.00" stroke="#fe9481" stroke-width="0.25"/>
<path d="M 119.05 217.09 C 122.50 217.60 126.00 220.35 126.04 224.06 C 123.96 221.51 120.33 220.16 119.05 217.09 Z" fill="#c99e93" opacity="1.00" stroke="#c99e93" stroke-width="0.25"/>
<path d="M 94.98 235.61 C 102.62 236.03 109.96 233.21 116.54 229.58 C 107.81 235.72 96.40 238.31 86.10 234.86 C 89.08 234.83 91.98 235.86 94.98 235.61 Z" fill="#2d3a40" opacity="1.00" stroke="#2d3a40" stroke-width="0.25"/>
<path d="M 142.80 324.23 C 148.23 332.16 155.49 339.07 164.00 343.55 C 159.70 342.58 156.59 339.19 153.08 336.77 C 148.96 333.23 145.31 329.07 142.80 324.23 Z" fill="#2d3a40" opacity="1.00" stroke="#2d3a40" stroke-width="0.25"/>
<path d="M 233.52 324.30 C 233.59 325.98 233.77 327.66 233.77 329.34 C 232.21 330.20 232.15 332.32 231.46 333.79 C 228.89 342.38 225.15 350.54 222.23 359.00 C 223.82 352.42 226.55 346.19 228.80 339.81 C 230.28 336.05 231.37 332.13 233.34 328.57 L 231.89 328.51 C 233.26 327.55 233.56 325.86 233.52 324.30 Z" fill="#2d3a40" opacity="1.00" stroke="#2d3a40" stroke-width="0.25"/>
<path d="M 166.30 327.83 C 168.40 338.46 169.19 349.31 171.40 359.92 C 171.17 361.31 170.90 362.71 170.63 364.11 C 169.31 357.43 168.25 350.72 167.43 343.97 C 166.48 338.65 166.06 333.23 166.30 327.83 Z" fill="#c99e93" opacity="1.00" stroke="#c99e93" stroke-width="0.25"/>
<path d="M 297.32 357.66 C 298.61 347.73 296.70 337.57 298.48 327.65 C 298.91 330.25 299.49 332.83 300.20 335.37 C 301.07 346.32 300.07 357.36 300.96 368.33 C 300.95 368.47 300.93 368.74 300.92 368.88 C 297.82 372.24 295.01 375.87 292.57 379.74 C 290.89 382.69 288.70 385.28 286.44 387.80 C 277.96 387.58 269.54 386.37 261.05 386.47 C 261.90 384.17 262.60 381.81 263.38 379.49 C 266.05 371.75 268.95 364.05 270.82 356.07 C 271.95 356.05 273.06 356.07 274.20 356.10 C 273.42 356.78 272.65 357.47 271.88 358.17 C 275.62 359.46 279.61 360.00 283.54 359.30 C 288.66 358.39 293.86 358.51 299.04 358.51 C 298.61 358.30 297.75 357.87 297.32 357.66 Z" fill="#f7b6a4" opacity="1.00" stroke="#f7b6a4" stroke-width="0.25"/>
<path d="M 300.52 327.60 C 300.96 341.17 301.69 354.77 300.96 368.33 C 300.07 357.36 301.07 346.32 300.20 335.37 C 300.20 332.77 300.32 330.18 300.52 327.60 Z" fill="#2d3a40" opacity="1.00" stroke="#2d3a40" stroke-width="0.25"/>
<path d="M 151.91 343.00 C 152.07 340.89 152.17 338.72 153.08 336.77 C 156.59 339.19 159.70 342.58 164.00 343.55 C 165.14 343.73 166.28 343.86 167.43 343.97 C 168.25 350.72 169.31 357.43 170.63 364.11 C 170.90 362.71 171.17 361.31 171.40 359.92 C 171.98 364.92 174.85 370.43 172.32 375.26 C 171.28 377.35 170.23 379.45 169.67 381.72 C 162.80 381.66 155.92 381.34 149.05 381.57 C 150.24 368.72 151.16 355.87 151.91 343.00 Z" fill="#f7b6a4" opacity="1.00" stroke="#f7b6a4" stroke-width="0.25"/>
<path d="M 274.20 356.10 C 279.85 356.51 285.43 354.74 291.08 355.20 C 293.04 356.30 295.12 357.13 297.32 357.66 C 297.75 357.87 298.61 358.30 299.04 358.51 C 293.86 358.51 288.66 358.39 283.54 359.30 C 279.61 360.00 275.62 359.46 271.88 358.17 C 272.65 357.47 273.42 356.78 274.20 356.10 Z" fill="#c99e93" opacity="1.00" stroke="#c99e93" stroke-width="0.25"/>
<path d="M 236.93 357.27 C 248.16 355.63 259.56 357.11 270.82 356.07 C 268.95 364.05 266.05 371.75 263.38 379.49 C 247.51 378.98 231.61 379.31 215.73 379.59 C 215.51 379.25 215.07 378.58 214.85 378.24 C 216.93 373.31 218.87 368.31 220.52 363.22 C 221.06 361.69 221.56 359.72 223.44 359.40 C 227.84 358.19 232.43 357.93 236.93 357.27 Z" fill="#ffffff" opacity="1.00" stroke="#ffffff" stroke-width="0.25"/>
<path d="M 292.57 379.74 C 295.01 375.87 297.82 372.24 300.92 368.88 C 300.70 372.63 300.61 376.39 300.04 380.11 C 297.54 379.98 295.05 379.85 292.57 379.74 Z" fill="#ffffff" opacity="1.00" stroke="#ffffff" stroke-width="0.25"/>
<path d="M 172.32 375.26 C 173.34 376.45 174.37 377.72 174.64 379.32 C 175.81 384.30 176.65 389.36 178.42 394.18 C 177.37 397.09 176.06 399.95 175.56 403.02 C 175.41 405.32 178.02 406.37 179.94 406.29 C 186.20 406.20 192.41 405.11 198.59 404.19 C 203.27 403.43 204.84 398.26 206.94 394.68 C 209.57 389.20 212.69 383.95 214.85 378.24 C 215.07 378.58 215.51 379.25 215.73 379.59 C 231.61 379.31 247.51 378.98 263.38 379.49 C 262.60 381.81 261.90 384.17 261.05 386.47 C 259.89 389.25 259.02 392.13 258.55 395.10 C 263.84 397.02 269.58 396.77 275.06 395.97 C 277.36 395.56 279.80 395.24 281.80 393.92 C 284.05 392.51 285.02 389.91 286.44 387.80 C 288.70 385.28 290.89 382.69 292.57 379.74 C 295.05 379.85 297.54 379.98 300.04 380.11 C 299.32 385.56 298.68 391.03 298.23 396.51 C 297.64 399.82 296.91 403.16 297.27 406.56 C 304.95 407.18 312.50 404.91 319.77 402.71 C 323.49 401.69 325.94 398.59 327.65 395.31 C 330.37 390.29 333.61 385.52 337.47 381.30 C 344.78 382.90 352.31 382.32 359.68 383.41 C 373.21 384.22 386.65 386.05 400.03 388.11 C 408.28 389.50 416.56 391.30 424.18 394.86 C 426.29 396.11 427.91 399.69 425.25 401.27 C 420.78 404.49 415.17 405.53 409.96 406.96 C 387.58 411.67 364.73 413.58 341.95 415.14 C 297.03 418.01 252.00 417.56 207.01 417.19 C 174.17 416.29 141.34 414.40 108.70 410.48 C 97.61 408.49 86.16 407.63 75.60 403.43 C 73.06 402.43 69.78 400.54 70.31 397.34 C 71.54 395.14 74.14 394.32 76.29 393.30 C 86.03 389.57 96.41 388.01 106.69 386.54 C 117.04 384.76 127.52 383.96 137.97 383.05 C 141.44 382.79 145.01 382.04 148.41 383.21 C 147.58 385.19 146.76 387.19 146.54 389.35 C 153.03 389.90 159.60 389.19 165.88 387.49 C 168.51 386.92 169.20 383.97 169.67 381.72 C 170.23 379.45 171.28 377.35 172.32 375.26 Z" fill="#e6e7e6" opacity="1.00" stroke="#e6e7e6" stroke-width="0.25"/>
<path d="M 148.41 383.21 C 148.57 382.80 148.89 381.98 149.05 381.57 C 155.92 381.34 162.80 381.66 169.67 381.72 C 169.20 383.97 168.51 386.92 165.88 387.49 C 159.60 389.19 153.03 389.90 146.54 389.35 C 146.76 387.19 147.58 385.19 148.41 383.21 Z" fill="#2d3a40" opacity="1.00" stroke="#2d3a40" stroke-width="0.25"/>
<path d="M 261.05 386.47 C 269.54 386.37 277.96 387.58 286.44 387.80 C 285.02 389.91 284.05 392.51 281.80 393.92 C 279.80 395.24 277.36 395.56 275.06 395.97 C 269.58 396.77 263.84 397.02 258.55 395.10 C 259.02 392.13 259.89 389.25 261.05 386.47 Z" fill="#2d3a40" opacity="1.00" stroke="#2d3a40" stroke-width="0.25"/>
<path d="M 178.42 394.18 C 187.93 394.33 197.43 394.48 206.94 394.68 C 204.84 398.26 203.27 403.43 198.59 404.19 C 192.41 405.11 186.20 406.20 179.94 406.29 C 178.02 406.37 175.41 405.32 175.56 403.02 C 176.06 399.95 177.37 397.09 178.42 394.18 Z" fill="#2d3a40" opacity="1.00" stroke="#2d3a40" stroke-width="0.25"/>
<path d="M 298.23 396.51 C 308.04 396.15 317.83 395.51 327.65 395.31 C 325.94 398.59 323.49 401.69 319.77 402.71 C 312.50 404.91 304.95 407.18 297.27 406.56 C 296.91 403.16 297.64 399.82 298.23 396.51 Z" fill="#2d3a40" opacity="1.00" stroke="#2d3a40" stroke-width="0.25"/>
</svg>